<mxfile host="app.diagrams.net" modified="2024-01-28T08:09:29.603Z" agent="Mozilla/5.0 (Windows NT 10.0; Win64; x64; rv:122.0) Gecko/20100101 Firefox/122.0" etag="45ZK5ue70IX4lbOpEcw_" version="22.1.21" type="github">
  <diagram id="C5RBs43oDa-KdzZeNtuy" name="Page-1">
    <mxGraphModel dx="875" dy="448" grid="0" gridSize="10" guides="1" tooltips="1" connect="1" arrows="1" fold="1" page="1" pageScale="1" pageWidth="1227" pageHeight="1669" math="0" shadow="0">
      <root>
        <mxCell id="WIyWlLk6GJQsqaUBKTNV-0" />
        <mxCell id="WIyWlLk6GJQsqaUBKTNV-1" parent="WIyWlLk6GJQsqaUBKTNV-0" />
        <mxCell id="KbImMk8VCF1O9yzr9qIP-60" value="" style="rounded=0;whiteSpace=wrap;html=1;" vertex="1" parent="WIyWlLk6GJQsqaUBKTNV-1">
          <mxGeometry x="199" y="495" width="700" height="211" as="geometry" />
        </mxCell>
        <mxCell id="KbImMk8VCF1O9yzr9qIP-32" value="" style="rounded=0;whiteSpace=wrap;html=1;" vertex="1" parent="WIyWlLk6GJQsqaUBKTNV-1">
          <mxGeometry x="201" y="256" width="303" height="211" as="geometry" />
        </mxCell>
        <mxCell id="KbImMk8VCF1O9yzr9qIP-9" style="edgeStyle=orthogonalEdgeStyle;rounded=0;orthogonalLoop=1;jettySize=auto;html=1;" edge="1" parent="WIyWlLk6GJQsqaUBKTNV-1" source="KbImMk8VCF1O9yzr9qIP-4" target="KbImMk8VCF1O9yzr9qIP-7">
          <mxGeometry relative="1" as="geometry" />
        </mxCell>
        <mxCell id="KbImMk8VCF1O9yzr9qIP-4" value="重点或敏感数据" style="rounded=0;whiteSpace=wrap;html=1;" vertex="1" parent="WIyWlLk6GJQsqaUBKTNV-1">
          <mxGeometry x="219" y="359" width="116" height="32" as="geometry" />
        </mxCell>
        <mxCell id="KbImMk8VCF1O9yzr9qIP-11" value="&lt;font size=&quot;1&quot;&gt;&lt;b style=&quot;font-size: 15px;&quot;&gt;建立基础语料库&lt;/b&gt;&lt;/font&gt;" style="rounded=0;whiteSpace=wrap;html=1;strokeColor=none;" vertex="1" parent="WIyWlLk6GJQsqaUBKTNV-1">
          <mxGeometry x="292" y="259" width="116" height="29" as="geometry" />
        </mxCell>
        <mxCell id="KbImMk8VCF1O9yzr9qIP-7" value="&lt;div&gt;统一分类分级标准&lt;/div&gt;&lt;div&gt;进行人工打标&lt;/div&gt;" style="rounded=0;whiteSpace=wrap;html=1;" vertex="1" parent="WIyWlLk6GJQsqaUBKTNV-1">
          <mxGeometry x="370" y="359" width="116" height="32" as="geometry" />
        </mxCell>
        <mxCell id="KbImMk8VCF1O9yzr9qIP-45" style="edgeStyle=orthogonalEdgeStyle;rounded=0;orthogonalLoop=1;jettySize=auto;html=1;" edge="1" parent="WIyWlLk6GJQsqaUBKTNV-1" source="KbImMk8VCF1O9yzr9qIP-14" target="KbImMk8VCF1O9yzr9qIP-42">
          <mxGeometry relative="1" as="geometry" />
        </mxCell>
        <mxCell id="KbImMk8VCF1O9yzr9qIP-46" style="edgeStyle=orthogonalEdgeStyle;rounded=0;orthogonalLoop=1;jettySize=auto;html=1;entryX=0.5;entryY=0;entryDx=0;entryDy=0;" edge="1" parent="WIyWlLk6GJQsqaUBKTNV-1" source="KbImMk8VCF1O9yzr9qIP-14" target="KbImMk8VCF1O9yzr9qIP-22">
          <mxGeometry relative="1" as="geometry">
            <Array as="points">
              <mxPoint x="456" y="537" />
              <mxPoint x="820" y="537" />
            </Array>
          </mxGeometry>
        </mxCell>
        <mxCell id="KbImMk8VCF1O9yzr9qIP-14" value="人工复核" style="rounded=0;whiteSpace=wrap;html=1;" vertex="1" parent="WIyWlLk6GJQsqaUBKTNV-1">
          <mxGeometry x="391" y="557" width="116" height="32" as="geometry" />
        </mxCell>
        <mxCell id="KbImMk8VCF1O9yzr9qIP-44" style="edgeStyle=orthogonalEdgeStyle;rounded=0;orthogonalLoop=1;jettySize=auto;html=1;entryX=1;entryY=0.5;entryDx=0;entryDy=0;" edge="1" parent="WIyWlLk6GJQsqaUBKTNV-1" source="KbImMk8VCF1O9yzr9qIP-20" target="KbImMk8VCF1O9yzr9qIP-14">
          <mxGeometry relative="1" as="geometry" />
        </mxCell>
        <mxCell id="KbImMk8VCF1O9yzr9qIP-20" value="分级分类结果" style="rounded=0;whiteSpace=wrap;html=1;" vertex="1" parent="WIyWlLk6GJQsqaUBKTNV-1">
          <mxGeometry x="579" y="557" width="116" height="32" as="geometry" />
        </mxCell>
        <mxCell id="KbImMk8VCF1O9yzr9qIP-43" style="edgeStyle=orthogonalEdgeStyle;rounded=0;orthogonalLoop=1;jettySize=auto;html=1;" edge="1" parent="WIyWlLk6GJQsqaUBKTNV-1" source="KbImMk8VCF1O9yzr9qIP-22" target="KbImMk8VCF1O9yzr9qIP-20">
          <mxGeometry relative="1" as="geometry" />
        </mxCell>
        <mxCell id="KbImMk8VCF1O9yzr9qIP-22" value="结果模型" style="rounded=0;whiteSpace=wrap;html=1;" vertex="1" parent="WIyWlLk6GJQsqaUBKTNV-1">
          <mxGeometry x="761" y="557" width="117" height="32" as="geometry" />
        </mxCell>
        <mxCell id="KbImMk8VCF1O9yzr9qIP-41" style="edgeStyle=orthogonalEdgeStyle;rounded=0;orthogonalLoop=1;jettySize=auto;html=1;" edge="1" parent="WIyWlLk6GJQsqaUBKTNV-1" source="KbImMk8VCF1O9yzr9qIP-28">
          <mxGeometry relative="1" as="geometry">
            <mxPoint x="820" y="590.3333333333334" as="targetPoint" />
          </mxGeometry>
        </mxCell>
        <mxCell id="KbImMk8VCF1O9yzr9qIP-28" value="存量数据" style="rounded=0;whiteSpace=wrap;html=1;" vertex="1" parent="WIyWlLk6GJQsqaUBKTNV-1">
          <mxGeometry x="762" y="646" width="116" height="32" as="geometry" />
        </mxCell>
        <mxCell id="KbImMk8VCF1O9yzr9qIP-33" value="" style="rounded=0;whiteSpace=wrap;html=1;" vertex="1" parent="WIyWlLk6GJQsqaUBKTNV-1">
          <mxGeometry x="556" y="257" width="343" height="210" as="geometry" />
        </mxCell>
        <mxCell id="KbImMk8VCF1O9yzr9qIP-42" value="上架展示" style="rounded=0;whiteSpace=wrap;html=1;" vertex="1" parent="WIyWlLk6GJQsqaUBKTNV-1">
          <mxGeometry x="219" y="557" width="116" height="32" as="geometry" />
        </mxCell>
        <mxCell id="KbImMk8VCF1O9yzr9qIP-49" value="&lt;font style=&quot;font-size: 15px;&quot;&gt;&lt;b&gt;模型训练&lt;br&gt;&lt;/b&gt;&lt;/font&gt;" style="rounded=0;whiteSpace=wrap;html=1;strokeColor=none;" vertex="1" parent="WIyWlLk6GJQsqaUBKTNV-1">
          <mxGeometry x="673" y="259" width="116" height="29" as="geometry" />
        </mxCell>
        <mxCell id="KbImMk8VCF1O9yzr9qIP-52" value="" style="group" vertex="1" connectable="0" parent="WIyWlLk6GJQsqaUBKTNV-1">
          <mxGeometry x="679" y="298" width="116" height="158" as="geometry" />
        </mxCell>
        <mxCell id="KbImMk8VCF1O9yzr9qIP-34" value="分类聚类" style="rounded=0;whiteSpace=wrap;html=1;" vertex="1" parent="KbImMk8VCF1O9yzr9qIP-52">
          <mxGeometry width="116" height="32" as="geometry" />
        </mxCell>
        <mxCell id="KbImMk8VCF1O9yzr9qIP-37" value="元数据正则" style="rounded=0;whiteSpace=wrap;html=1;" vertex="1" parent="KbImMk8VCF1O9yzr9qIP-52">
          <mxGeometry y="85" width="116" height="32" as="geometry" />
        </mxCell>
        <mxCell id="KbImMk8VCF1O9yzr9qIP-50" value="规则匹配" style="rounded=0;whiteSpace=wrap;html=1;" vertex="1" parent="KbImMk8VCF1O9yzr9qIP-52">
          <mxGeometry y="126" width="116" height="32" as="geometry" />
        </mxCell>
        <mxCell id="KbImMk8VCF1O9yzr9qIP-51" value="关键字识别" style="rounded=0;whiteSpace=wrap;html=1;" vertex="1" parent="KbImMk8VCF1O9yzr9qIP-52">
          <mxGeometry y="43.5" width="116" height="32" as="geometry" />
        </mxCell>
        <mxCell id="KbImMk8VCF1O9yzr9qIP-57" value="&lt;font style=&quot;font-size: 15px;&quot;&gt;&lt;b&gt;强化学习&lt;br&gt;&lt;/b&gt;&lt;/font&gt;" style="rounded=0;whiteSpace=wrap;html=1;strokeColor=none;" vertex="1" parent="WIyWlLk6GJQsqaUBKTNV-1">
          <mxGeometry x="471" y="500" width="116" height="29" as="geometry" />
        </mxCell>
      </root>
    </mxGraphModel>
  </diagram>
</mxfile>
